<svg width="28" height="28" viewBox="0 0 28 28" fill="none" xmlns="http://www.w3.org/2000/svg">
<g clip-path="url(#clip0_12_1474)">
<path fill-rule="evenodd" clip-rule="evenodd" d="M18.067 5.82946H8.71418H8.69644V5.81174V0.0177187V0H8.71418H25.5882H25.5971L25.6015 0.00442968L28.0273 2.37431L28.0317 2.37874V2.3876V19.2913V19.309H28.014H22.2134H22.1957V19.2913V9.95349L12.8296 19.309L12.8251 19.3134H12.8163H8.71862H8.70088V19.2957V15.2027V15.1938L8.70531 15.1894L18.067 5.82946ZM5.83606 22.1705H28.0096H28.0273V22.1883V25.608V25.6168L28.0229 25.6213L25.5971 27.9911L25.5926 27.9956H25.5882H2.44352H2.43908H2.43021L0.0044347 25.6257L0 25.6168V25.608V2.3876V2.38317L0.0044347 2.37874L2.43021 0.00885936L2.43908 0H2.44795H5.81832H5.83606V0.0177187V22.1705Z" fill="#3F67B1"/>
</g>
<defs>
<clipPath id="clip0_12_1474">
<rect width="28" height="28" fill="white"/>
</clipPath>
</defs>
</svg>
