<svg width="182" height="28" viewBox="0 0 182 28" fill="none" xmlns="http://www.w3.org/2000/svg">
<g clip-path="url(#clip0_12_1474)">
<path fill-rule="evenodd" clip-rule="evenodd" d="M18.067 5.82946H8.71418H8.69644V5.81174V0.0177187V0H8.71418H25.5882H25.5971L25.6015 0.00442968L28.0273 2.37431L28.0317 2.37874V2.3876V19.2913V19.309H28.014H22.2134H22.1957V19.2913V9.95349L12.8296 19.309L12.8251 19.3134H12.8163H8.71862H8.70088V19.2957V15.2027V15.1938L8.70531 15.1894L18.067 5.82946ZM5.83606 22.1705H28.0096H28.0273V22.1883V25.608V25.6168L28.0229 25.6213L25.5971 27.9911L25.5926 27.9956H25.5882H2.44352H2.43908H2.43021L0.0044347 25.6257L0 25.6168V25.608V2.3876V2.38317L0.0044347 2.37874L2.43021 0.00885936L2.43908 0H2.44795H5.81832H5.83606V0.0177187V22.1705Z" fill="#3F67B1"/>
<path d="M162.851 25.6788H158.443V10.4009H163.073V11.7076C163.782 10.9635 164.545 10.5249 165.241 10.2724C166.071 9.97121 166.811 9.92248 167.272 9.92248C168.891 9.92248 170.017 10.4319 170.789 11.0432C171.374 11.5083 171.756 12.0266 171.991 12.4208C172.421 11.8051 173.051 11.1318 173.916 10.6445C174.669 10.2148 175.605 9.92248 176.74 9.92248C177.933 9.92248 178.825 10.2016 179.499 10.5736C180.177 10.9502 180.625 11.4286 180.927 11.8228C181.432 12.4828 181.703 13.1473 181.845 13.8605C181.987 14.5604 182 15.3045 182 16.1373V25.6744H177.37V17.3732C177.37 16.5227 177.277 15.9114 177.153 15.464C177.029 15.0343 176.873 14.7685 176.736 14.6002C176.492 14.299 176.204 14.1307 175.929 14.0377C175.654 13.9446 175.383 13.9313 175.193 13.9313C174.669 13.9313 174.248 14.0509 173.907 14.2591C173.565 14.4673 173.299 14.7641 173.086 15.1229C172.838 15.5437 172.696 16.0399 172.625 16.5227C172.55 17.01 172.536 17.4972 172.536 17.887V25.6788H167.907V17.3732C167.907 16.5227 167.813 15.9114 167.689 15.464C167.565 15.0343 167.41 14.7685 167.272 14.6002C167.028 14.299 166.74 14.1307 166.465 14.0377C166.19 13.9446 165.92 13.9313 165.729 13.9313C165.206 13.9313 164.785 14.0509 164.443 14.2591C164.102 14.4673 163.835 14.7641 163.623 15.1229C163.374 15.5437 163.232 16.0399 163.161 16.5227C163.086 17.01 163.073 17.4972 163.073 17.887V25.6788H162.851ZM146.385 25.6788H141.977C141.981 17.9668 141.981 10.2547 141.977 2.53821H146.607V11.9025C146.966 11.4906 147.409 11.0831 147.959 10.7464C148.74 10.2636 149.733 9.92248 150.979 9.92248C151.738 9.92248 152.704 10.0465 153.622 10.4275C154.332 10.7198 155.01 11.1672 155.543 11.8228C156.079 12.4873 156.385 13.2004 156.554 13.9402C156.722 14.6667 156.758 15.4109 156.758 16.1417V25.6788H152.128V17.3732C152.128 16.9701 152.119 16.4518 152.021 15.9468C151.924 15.4551 151.746 14.9723 151.401 14.6135C151.108 14.3034 150.758 14.1351 150.434 14.0421C150.106 13.9491 149.804 13.9313 149.609 13.9313C149.095 13.9313 148.633 14.0155 148.239 14.2104C147.844 14.4009 147.507 14.7021 147.223 15.1318C146.93 15.5792 146.775 16.0576 146.695 16.5227C146.616 16.9967 146.607 17.4662 146.607 17.887V25.6788H146.385ZM140.784 10.6224V14.4097H137.906V25.6788H133.276V14.4097H131.631V10.4009H133.276V2.5825H137.906V10.4009H140.784V10.6224ZM126.056 7.09635C125.56 6.60022 125.254 5.92248 125.254 5.17386C125.254 4.42968 125.564 3.74751 126.056 3.25138C126.553 2.75526 127.231 2.44961 127.981 2.44961C128.726 2.44961 129.409 2.75969 129.906 3.25138C130.402 3.74751 130.708 4.42525 130.708 5.17386C130.708 5.91805 130.402 6.60022 129.906 7.09635C129.409 7.59247 128.73 7.89812 127.981 7.89812C127.231 7.89812 126.553 7.58804 126.056 7.09635ZM125.666 25.4529V10.4009H130.296V25.6788H125.666V25.4529ZM118.278 25.6788H113.87V10.4009H118.5V12.0487C118.726 11.7254 118.961 11.464 119.178 11.2558C119.537 10.9103 119.852 10.7021 120.012 10.6047C120.371 10.3876 120.775 10.2104 121.227 10.0908C121.644 9.98007 122.101 9.91805 122.597 9.91805C122.974 9.91805 123.316 9.96235 123.626 10.0288C123.932 10.0952 124.207 10.1838 124.455 10.2724L124.628 10.3344L124.003 14.7774L123.706 14.5736C123.453 14.4009 123.2 14.2724 122.912 14.1883C122.619 14.1041 122.287 14.0642 121.879 14.0642C121.502 14.0642 121.036 14.1041 120.575 14.2636C120.118 14.423 119.657 14.7021 119.276 15.1761C118.908 15.6412 118.712 16.1728 118.61 16.7087C118.508 17.258 118.5 17.8206 118.5 18.3256V25.6744H118.278V25.6788ZM101.51 25.6788H97.1022V10.4009H101.732V11.9025C102.091 11.4906 102.535 11.0831 103.085 10.7464C103.865 10.2636 104.858 9.92248 106.105 9.92248C106.863 9.92248 107.83 10.0465 108.748 10.4275C109.457 10.7198 110.136 11.1672 110.668 11.8228C111.204 12.4873 111.51 13.2004 111.679 13.9402C111.848 14.6667 111.883 15.4109 111.883 16.1417V25.6788H107.253V17.3732C107.253 16.9701 107.244 16.4518 107.147 15.9468C107.049 15.4551 106.872 14.9723 106.526 14.6135C106.233 14.3034 105.883 14.1351 105.559 14.0421C105.231 13.9491 104.929 13.9313 104.734 13.9313C104.22 13.9313 103.759 14.0155 103.364 14.2104C102.969 14.4009 102.632 14.7021 102.348 15.1318C102.056 15.5792 101.9 16.0576 101.821 16.5227C101.741 16.9967 101.732 17.4662 101.732 17.887V25.6788H101.51ZM89.7184 25.6788H85.3103V10.4009H89.9401V12.0487C90.1663 11.7254 90.4013 11.464 90.6186 11.2558C90.9778 10.9103 91.2927 10.7021 91.4523 10.6047C91.8116 10.3876 92.2151 10.2104 92.663 10.0908C93.0799 9.98007 93.5367 9.91805 94.0333 9.91805C94.4103 9.91805 94.7518 9.96235 95.0622 10.0288C95.3682 10.0952 95.6431 10.1838 95.8915 10.2724L96.0644 10.3344L95.4391 14.7774L95.142 14.5736C94.8892 14.4009 94.6365 14.2724 94.3482 14.1883C94.0555 14.1041 93.7229 14.0642 93.3149 14.0642C92.938 14.0642 92.4723 14.1041 92.0111 14.2636C91.5543 14.423 91.0931 14.7021 90.7118 15.1761C90.3437 15.6412 90.1485 16.1728 90.0465 16.7087C89.9445 17.258 89.9357 17.8206 89.9357 18.3256V25.6744H89.7184V25.6788ZM77.7403 15.1849C77.0529 14.4895 76.0861 14.0687 74.9597 14.0687C73.8333 14.0687 72.8665 14.4895 72.1791 15.1849C71.4829 15.8937 71.0705 16.8904 71.0705 18.0199C71.0705 19.1539 71.4829 20.1595 72.1836 20.8771C72.871 21.5814 73.8333 22.0066 74.9597 22.0066C76.0861 22.0066 77.0484 21.577 77.7358 20.8771C78.4365 20.1595 78.8489 19.1495 78.8489 18.0199C78.8489 16.8904 78.4365 15.8937 77.7403 15.1849ZM76.2546 10.3123C77.0041 10.5914 77.7802 11.0653 78.4409 11.8582V10.4009H83.0708V25.6788H78.4409V24.1905C77.758 24.9878 77.0085 25.4662 76.299 25.7542C75.4475 26.0997 74.6537 26.1617 74.1038 26.1617C71.8111 26.1617 69.8953 25.2846 68.5338 23.8627C67.1147 22.3787 66.3032 20.3056 66.3032 18.0244C66.3032 15.7386 67.097 13.6877 68.4717 12.2171C69.8021 10.7951 71.678 9.92248 73.8998 9.92248C74.4763 9.92248 75.3455 9.97564 76.2546 10.3123ZM54.9592 14.0997C54.4714 14.5161 54.09 15.0963 53.9082 15.845H60.3917C60.2099 15.0919 59.8285 14.5116 59.3363 14.0997C58.711 13.5725 57.9083 13.3156 57.1322 13.3156C56.3606 13.3156 55.5756 13.577 54.9592 14.0997ZM59.119 21.9491C59.6822 21.6301 60.1389 21.1606 60.4715 20.5847L60.5469 20.4518L64.8175 21.1384L64.7111 21.3953C64.4805 21.9579 63.935 23.1495 62.7776 24.1993C61.6201 25.2492 59.8551 26.1573 57.2032 26.1573C55.9792 26.1573 54.8971 25.9801 53.9348 25.6257C52.968 25.2669 52.121 24.7309 51.3582 24.0089C50.5112 23.2159 49.9081 22.3212 49.5223 21.3289C49.1365 20.3367 48.9591 19.247 48.9591 18.0598C48.9591 16.5537 49.2695 15.3311 49.713 14.3522C50.1564 13.3688 50.7418 12.629 51.2873 12.0797C52.1875 11.1982 53.172 10.6578 54.1565 10.3389C55.141 10.0199 56.1211 9.92691 57.0302 9.92691C58.5735 9.92691 59.7975 10.237 60.7687 10.7021C61.7443 11.1716 62.4627 11.8007 62.9949 12.4385C63.8064 13.4086 64.2676 14.4939 64.5249 15.5437C64.7776 16.5847 64.8309 17.5858 64.8309 18.4053V18.9723H53.7264C53.7441 19.34 53.8018 19.7165 53.9038 20.0709C54.0146 20.4607 54.1787 20.8239 54.396 21.1163C54.631 21.4441 55.0169 21.825 55.5801 22.0908C56.0058 22.2901 56.5424 22.4275 57.1987 22.4275C57.9349 22.423 58.5779 22.2547 59.119 21.9491ZM36.2714 25.4529V2.3876H41.1762V21.3953H48.2406V25.6788H36.2714V25.4529Z" fill="#161718"/>
</g>
<defs>
<clipPath id="clip0_12_1474">
<rect width="182" height="28" fill="white"/>
</clipPath>
</defs>
</svg>
